<?xml version="1.0" standalone="no"?>
<!DOCTYPE svg PUBLIC "-//W3C//DTD SVG 20010904//EN"
 "http://www.w3.org/TR/2001/REC-SVG-20010904/DTD/svg10.dtd">
<svg version="1.0" xmlns="http://www.w3.org/2000/svg"
 width="1000.000000pt" height="1000.000000pt" viewBox="0 0 1000.000000 1000.000000"
 preserveAspectRatio="xMidYMid meet">
<metadata>
Created by potrace 1.14, written by Peter Selinger 2001-2017
</metadata>
<g transform="translate(0.000000,1000.000000) scale(0.100000,-0.100000)"
fill="#000000" stroke="none">
<path d="M4758 9175 c-2 -2 -37 -6 -78 -9 -120 -8 -230 -20 -320 -36 -30 -5
-72 -12 -92 -14 -21 -2 -41 -7 -45 -9 -5 -3 -28 -8 -53 -12 -25 -4 -47 -8 -50
-10 -3 -2 -21 -6 -40 -9 -19 -3 -93 -22 -165 -41 -71 -20 -137 -38 -145 -40
-8 -2 -42 -14 -75 -25 -33 -12 -67 -23 -75 -25 -20 -5 -257 -98 -317 -126
-141 -64 -376 -186 -449 -234 -18 -11 -62 -38 -99 -60 -37 -22 -72 -44 -78
-50 -7 -5 -41 -30 -77 -55 -92 -62 -194 -141 -198 -151 -2 -5 -9 -9 -16 -9 -6
0 -18 -9 -26 -20 -8 -11 -18 -20 -22 -20 -4 0 -16 -8 -26 -17 -10 -10 -47 -43
-82 -73 -69 -60 -267 -256 -340 -336 -52 -56 -202 -240 -245 -299 -16 -22 -31
-42 -35 -45 -30 -27 -244 -373 -305 -495 -22 -44 -43 -81 -47 -83 -5 -2 -8 -8
-8 -14 0 -15 -72 -162 -82 -166 -4 -2 -8 -12 -8 -21 0 -10 -9 -28 -20 -41 -11
-13 -20 -27 -20 -31 0 -4 -21 -28 -47 -54 -49 -47 -165 -111 -183 -100 -6 3
-10 1 -10 -4 0 -6 -3 -10 -7 -9 -5 1 -26 -1 -48 -5 -22 -4 -60 -9 -84 -12 -23
-3 -55 -7 -70 -10 -14 -2 -53 -7 -86 -10 -33 -3 -78 -8 -99 -10 -21 -3 -62 -8
-90 -11 -53 -6 -87 -11 -96 -13 -3 0 -6 -31 -6 -69 l0 -67 567 0 567 0 53 140
c29 77 59 151 66 165 7 14 13 31 13 38 0 6 5 12 10 12 6 0 10 5 10 10 0 14 82
181 124 255 20 33 44 76 55 96 11 19 37 62 59 95 21 32 41 67 45 77 3 9 11 17
17 17 5 0 10 5 10 10 0 6 4 16 10 23 5 7 47 62 92 122 45 61 87 115 92 121 6
6 33 38 61 70 125 148 403 410 550 519 22 16 45 33 50 38 102 86 544 353 603
363 8 1 22 10 31 18 10 9 22 16 27 16 8 0 48 17 229 95 17 7 55 20 85 30 30
10 61 23 69 29 8 6 15 9 15 7 1 -2 28 4 61 14 33 10 65 19 70 21 6 1 53 14
105 28 98 26 272 65 325 72 17 2 59 8 95 14 36 5 88 12 115 15 28 3 82 8 120
12 151 15 575 8 725 -12 19 -2 53 -7 75 -9 101 -11 150 -18 156 -22 4 -2 24
-6 45 -10 21 -3 67 -12 103 -20 36 -8 77 -17 91 -20 36 -7 99 -24 140 -36 45
-14 64 -19 67 -19 7 1 239 -82 309 -109 166 -66 373 -168 518 -255 56 -34 112
-67 126 -75 14 -8 27 -17 30 -20 3 -3 25 -18 50 -35 313 -208 644 -522 879
-833 99 -132 93 -124 166 -237 87 -135 207 -358 270 -499 35 -79 77 -182 91
-226 9 -25 21 -57 27 -72 l12 -28 567 0 568 0 0 70 0 70 -32 1 c-18 0 -42 2
-53 5 -11 2 -45 6 -75 9 -30 3 -71 8 -90 10 -61 8 -134 17 -175 20 -22 2 -40
5 -40 5 0 1 -18 3 -40 6 -145 16 -286 103 -340 209 -11 22 -22 42 -25 45 -3 3
-44 84 -92 180 -105 211 -257 468 -305 518 -7 7 -13 17 -13 21 0 4 -8 16 -17
27 -10 11 -29 35 -42 54 -31 44 -166 214 -206 258 -105 118 -177 193 -281 292
-44 42 -105 98 -138 125 -32 28 -66 57 -76 65 -10 8 -32 26 -50 40 -18 14 -39
31 -46 38 -7 6 -17 12 -23 12 -6 0 -11 4 -11 8 0 5 -42 37 -92 72 -51 35 -94
68 -96 72 -2 4 -7 8 -12 8 -5 0 -41 22 -82 48 -173 114 -435 251 -643 337 -49
20 -99 41 -110 45 -34 15 -193 71 -212 75 -10 3 -70 20 -133 40 -63 19 -126
36 -140 39 -14 2 -32 7 -40 10 -8 3 -26 8 -40 10 -14 3 -72 15 -130 26 -58 12
-116 23 -130 25 -14 1 -38 5 -55 8 -16 4 -57 9 -90 13 -33 3 -73 8 -90 10 -92
12 -176 16 -417 19 -146 2 -268 2 -270 0z"/>
<path d="M58 5582 l-58 -3 0 -582 0 -582 128 0 127 0 2 410 c1 226 2 421 3
435 0 21 75 -51 433 -411 l432 -435 155 2 c85 1 158 2 162 3 4 0 6 262 6 581
l0 580 -129 0 -129 0 0 -430 c0 -236 -2 -430 -4 -430 -4 0 -316 313 -649 652
-195 198 -200 202 -247 208 -27 3 -56 3 -64 -2 -8 -5 -17 -4 -20 1 -3 4 -24 5
-45 1 -22 -4 -42 -4 -43 -1 -2 3 -29 5 -60 3z"/>
<path d="M2065 5580 c-3 -5 -14 -6 -25 -3 -15 4 -20 0 -21 -13 -4 -101 0
-1133 4 -1140 3 -6 61 -10 129 -9 l123 0 0 582 0 582 -23 4 c-12 2 -25 1 -27
-3 -3 -4 -21 -4 -40 0 -19 4 -37 4 -40 0 -3 -4 -21 -4 -40 0 -19 4 -37 4 -40
0z"/>
<path d="M9810 5580 l-65 -5 0 -422 c0 -232 -3 -424 -6 -427 -3 -3 -196 188
-430 424 l-424 430 -165 -2 -165 -3 0 -577 c-1 -395 2 -578 10 -581 9 -3 214
-2 240 2 7 1 9 146 8 418 -1 230 0 423 2 430 2 7 104 -89 227 -213 123 -124
315 -318 428 -432 l205 -208 160 1 160 0 3 583 2 584 -60 -4 c-33 -1 -61 -1
-63 2 -1 3 -31 3 -67 0z"/>
<path d="M3177 5574 c-1 -1 -34 -4 -73 -6 -216 -14 -355 -190 -320 -403 10
-55 49 -133 89 -176 35 -37 122 -85 172 -93 17 -3 214 -6 439 -6 275 -1 416
-4 430 -12 40 -20 59 -50 64 -97 5 -52 -20 -95 -66 -112 -15 -6 -244 -10 -564
-10 l-538 0 0 -120 0 -119 523 -1 c287 0 529 0 537 0 40 0 114 11 148 22 141
46 238 206 222 365 -7 64 -46 174 -61 174 -5 0 -9 5 -9 12 0 14 -65 75 -100
93 -68 35 -111 39 -531 40 -312 1 -423 4 -446 14 -34 14 -58 59 -55 99 3 37
33 80 61 88 14 5 257 9 539 9 281 1 515 5 520 9 4 4 7 57 7 117 l1 109 -26 0
c-74 2 -962 5 -963 4z"/>
<path d="M5157 5573 c-1 -1 -42 -3 -90 -4 -73 -3 -98 -8 -155 -34 -105 -49
-161 -121 -185 -237 -35 -170 56 -335 213 -388 56 -19 86 -20 472 -20 368 -1
417 -3 448 -18 83 -41 81 -158 -3 -200 -20 -10 -149 -13 -566 -13 l-541 0 0
-120 0 -120 583 4 c501 3 610 6 625 17 1 2 5 3 10 4 20 5 78 41 109 69 37 34
89 132 99 187 11 58 6 134 -11 181 -9 24 -17 50 -19 57 -1 7 -19 35 -39 61
-38 52 -119 105 -177 116 -19 4 -228 8 -464 9 l-429 2 -28 32 c-36 40 -40 68
-18 124 22 54 36 55 597 54 281 0 513 1 513 4 1 3 2 56 3 118 l2 112 -36 0
c-133 2 -912 5 -913 3z"/>
<path d="M7185 5538 c-16 -24 -36 -55 -47 -70 -10 -15 -18 -32 -18 -38 0 -5
-4 -10 -10 -10 -5 0 -10 -4 -10 -9 0 -8 -142 -243 -167 -277 -4 -5 -13 -19
-20 -30 -6 -10 -32 -53 -58 -94 -25 -41 -51 -84 -58 -95 -7 -11 -24 -38 -38
-60 -14 -22 -75 -119 -134 -215 -59 -96 -111 -177 -115 -180 -4 -3 -10 -14
-14 -25 -6 -20 -2 -21 147 -19 83 1 155 2 158 3 3 0 11 12 17 25 6 13 34 59
62 102 l52 79 401 -2 c221 -1 412 -2 423 -2 16 -1 36 -26 80 -98 32 -54 60
-100 62 -103 8 -10 312 -6 307 5 -3 5 -8 18 -11 28 -4 9 -10 17 -15 17 -5 0
-9 4 -9 10 0 5 -20 41 -45 79 -25 38 -45 74 -45 79 0 6 -4 12 -8 14 -4 2 -26
32 -47 68 -21 36 -43 67 -47 68 -4 2 -8 8 -8 13 0 6 -18 37 -40 70 -22 33 -40
62 -40 64 0 2 -13 24 -30 48 -16 25 -30 49 -30 55 0 6 -3 12 -7 14 -5 2 -35
46 -67 98 -32 52 -66 106 -75 120 -26 41 -40 64 -48 80 -4 8 -15 24 -25 34
-10 11 -18 23 -18 27 0 4 -23 44 -51 88 l-52 81 -137 0 -137 0 -28 -42z m240
-346 c47 -78 111 -178 118 -183 5 -3 8 -9 8 -13 -1 -6 15 -36 56 -97 12 -19
23 -40 23 -45 0 -7 -100 -10 -280 -10 -208 0 -280 3 -280 12 0 6 8 22 18 35
10 13 73 113 141 223 l124 198 31 -52 c17 -28 36 -59 41 -68z"/>
<path d="M301 3756 c-10 -13 -8 -112 2 -123 8 -8 17 -9 102 -18 33 -3 78 -8
100 -11 22 -3 58 -7 80 -9 133 -16 223 -27 240 -30 112 -22 189 -60 251 -123
41 -41 71 -90 150 -249 54 -109 102 -199 107 -201 4 -2 7 -8 7 -14 0 -20 250
-420 280 -448 3 -3 25 -32 50 -65 46 -61 68 -89 85 -109 6 -6 35 -41 65 -76
153 -182 424 -444 565 -548 52 -38 102 -77 110 -87 18 -20 328 -221 440 -286
303 -173 674 -324 1020 -414 114 -29 160 -40 265 -60 91 -18 265 -44 335 -51
22 -2 65 -7 95 -10 80 -9 580 -10 685 -1 161 13 420 49 420 57 0 1 18 4 40 6
22 3 58 10 80 16 22 5 51 12 65 15 14 2 52 11 85 20 33 8 67 17 75 18 8 2 16
4 18 5 1 2 5 3 10 4 4 1 34 10 67 21 62 19 76 23 98 28 6 1 17 5 22 8 6 4 42
17 80 29 39 13 86 30 105 38 19 9 40 17 45 18 23 5 159 65 172 75 7 6 13 9 13
6 0 -4 49 18 109 48 60 30 114 55 120 55 6 0 11 4 11 9 0 5 15 15 32 22 41 17
269 155 368 223 370 253 734 600 980 936 30 41 58 77 62 78 5 2 8 10 8 17 0 7
3 15 8 17 11 5 134 192 195 299 30 53 97 179 148 280 51 101 96 186 101 187 4
2 8 10 8 18 0 23 106 119 152 138 24 10 51 22 60 27 22 11 165 34 278 45 25 2
65 6 90 10 25 3 56 7 70 8 14 2 57 7 95 11 39 5 73 8 78 7 8 -2 9 3 9 76 0 30
-3 57 -7 60 -6 6 -1101 11 -1121 4 -7 -2 -19 -24 -29 -50 -31 -85 -88 -226
-105 -262 -10 -19 -19 -38 -19 -42 -5 -21 -102 -211 -165 -323 -74 -131 -299
-453 -344 -495 -10 -8 -32 -35 -51 -60 -19 -25 -107 -117 -195 -205 -173 -172
-228 -221 -386 -341 -102 -78 -227 -164 -238 -164 -6 0 -12 -4 -14 -9 -5 -14
-258 -156 -401 -225 -131 -63 -408 -174 -455 -182 -14 -3 -30 -8 -35 -11 -5
-3 -31 -12 -58 -19 -27 -8 -73 -21 -101 -29 -29 -8 -69 -18 -88 -21 -19 -3
-38 -8 -43 -11 -4 -2 -20 -7 -35 -9 -15 -3 -46 -9 -70 -15 -23 -5 -59 -12 -80
-15 -20 -3 -63 -10 -95 -15 -216 -37 -554 -52 -817 -35 -172 11 -247 19 -405
48 -33 6 -69 12 -80 13 -73 10 -400 96 -434 115 -12 6 -21 9 -21 6 0 -3 -37 9
-82 25 -374 137 -704 313 -1003 537 -33 25 -61 49 -63 54 -2 4 -10 8 -17 8 -7
0 -15 3 -17 8 -1 4 -30 29 -63 57 -162 135 -343 315 -474 475 -30 36 -57 67
-60 70 -3 3 -10 12 -16 21 -5 9 -32 45 -58 80 -64 85 -72 96 -110 154 -62 96
-125 200 -152 253 -15 29 -31 55 -36 58 -5 3 -9 14 -9 24 0 10 -3 20 -7 22 -5
2 -18 23 -30 48 -36 76 -93 201 -93 206 0 2 -9 23 -20 47 -20 44 -44 109 -61
164 -5 18 -15 36 -22 40 -19 13 -1116 11 -1126 -1z"/>
</g>
</svg>
